<svg preserveAspectRatio="xMinYMin meet" viewBox="0 0 1010 279" xmlns="http://www.w3.org/2000/svg"><title>logo-science-black</title><g fill="#000" fill-rule="evenodd"><path d="M25.89 257.616l-11.445 17.94H2.285l-2.145-89.7h8.583c15.02 40.903 37.193 79.653 81.54 79.653 31.47 0 47.206-19.376 47.206-48.08 0-23.68-11.445-40.902-35.048-50.95-20.027-8.61-33.617-13.633-53.645-22.96-26.464-12.2-42.2-33.728-42.2-67.455 0-40.903 31.472-71.042 73.672-71.042 17.88 0 40.768 7.894 53.643 18.658l10.73-17.222h12.874l2.145 87.547h-8.583c-14.306-43.774-31.472-76.783-77.964-76.783-10.013 0-35.763 9.33-35.763 39.468 0 23.68 10.014 36.597 31.472 49.514 17.166 10.046 35.047 15.07 50.783 22.963 28.61 14.352 50.068 30.14 50.068 69.606 0 46.644-35.048 79.653-82.255 79.653-30.04-2.153-50.782-11.482-61.51-20.81M178.24 183.704c0-47.36 30.04-91.135 77.962-91.135 35.763 0 53.644 20.81 53.644 44.49 0 12.917-7.152 21.528-19.312 21.528-7.152 0-20.742-4.306-20.742-19.375 0-15.787 4.292-16.505 4.292-23.68-2.146-11.482-7.153-13.635-18.597-13.635-20.743 0-40.055 20.093-40.055 78.218 0 46.643 16.45 78.935 46.492 78.935 23.604 0 37.91-12.198 48.638-34.444l7.868 5.74c-12.875 25.117-37.194 45.927-64.374 45.927-50.783 0-75.817-39.467-75.817-92.57M339.172 25.116C339.172 12.2 349.186.718 362.06.718c14.305 0 23.604 10.046 23.604 22.963 0 13.635-10.014 25.116-23.604 25.116-12.874 0-22.888-10.764-22.888-23.68zm-16.45 238.24c5.72-.717 10.728-1.435 15.735-2.87 6.437-2.153 9.298-9.33 9.298-17.222v-110.51c-.715-7.893-3.576-15.07-9.298-19.374-4.292-2.87-15.02-7.176-20.743-7.176v-7.176l62.228-4.306 2.145 2.87v143.52c0 7.893 3.577 14.35 9.3 17.94 5.006 2.87 11.443 4.304 15.734 4.304v7.894h-83.684v-7.894h-.715zM507.973 160.74c0-27.985-5.007-58.842-29.326-58.842-20.742 0-35.763 23.68-36.478 60.278l65.803-1.435zm-102.997 22.246c0-45.926 27.18-90.417 73.67-90.417 47.923 0 65.805 34.444 65.805 73.91v3.59H442.17v4.305c0 49.514 14.304 84.676 50.067 84.676 25.75 0 35.048-10.763 47.922-34.444l7.152 4.306c-12.16 27.27-35.763 46.644-64.373 46.644-52.93.717-77.964-41.62-77.964-92.57z"/><path d="M546.597 263.356c5.722-.717 10.73-1.435 15.735-2.87 6.438-2.153 9.3-8.61 9.3-17.222v-110.51c-.717-7.893-3.578-15.786-9.3-20.092-3.576-2.87-11.444-5.74-17.166-6.458v-7.176l57.936-4.306 2.86 2.87v25.834h.716c13.59-14.352 26.465-31.574 55.075-31.574 31.47 0 46.492 24.398 46.492 60.995v88.982c0 8.61 2.86 14.35 8.583 17.22 5.007 2.154 9.298 3.59 15.736 4.306v7.894h-84.4v-7.894c5.72-.717 11.443-1.435 15.735-2.87 6.436-2.153 9.297-8.61 9.297-17.222V152.13c0-26.55-12.874-40.903-27.18-40.903-23.603 0-37.193 15.787-40.77 25.116V241.11c0 8.612 2.862 14.353 8.584 17.223 4.292 2.87 10.73 4.306 15.737 4.306v7.892H545.88v-7.176h.717zM726.126 183.704c0-47.36 30.04-91.135 77.963-91.135 35.762 0 53.644 20.81 53.644 44.49 0 12.917-7.153 21.528-19.312 21.528-7.153 0-20.743-4.306-20.743-19.375 0-15.787 4.29-16.505 4.29-23.68-2.145-11.482-7.152-13.635-18.596-13.635-20.742 0-40.054 20.093-40.054 78.218 0 46.643 16.45 78.935 46.49 78.935 23.605 0 37.91-12.198 48.64-34.444l7.867 5.74c-12.875 25.117-37.194 45.927-64.373 45.927-50.784 0-75.818-39.467-75.818-92.57M970.03 160.74c0-27.985-5.008-58.842-29.326-58.842-20.743 0-35.763 23.68-36.48 60.278l65.805-1.435zM867.03 182.987c0-45.926 27.18-90.417 73.672-90.417 47.922 0 65.803 34.444 65.803 73.91v3.59H904.225v4.305c0 49.514 14.306 84.676 50.068 84.676 25.75 0 35.048-10.763 47.923-34.444l7.152 4.306c-12.16 27.27-35.763 46.644-64.373 46.644-53.644.717-77.963-41.62-77.963-92.57z"/></g></svg>